<svg xmlns="http://www.w3.org/2000/svg" viewBox="0 0 380 280" font-family="ui-sans-serif, system-ui, sans-serif">
  <rect width="380" height="280" rx="8" fill="#09090b"/>
  <rect x="0" y="0" width="380" height="280" rx="8" fill="none" stroke="#27272a" stroke-width="1"/>

  <!-- Dangerous card -->
  <rect x="12" y="20" width="356" height="240" rx="6" fill="#18181b" stroke="#7f1d1d" stroke-width="2"/>

  <text x="24" y="42" fill="#a1a1aa" font-size="10">tool:</text>
  <text x="52" y="42" fill="#e4e4e7" font-size="11" font-weight="600">submitForm</text>
  <rect x="140" y="30" width="66" height="16" rx="3" fill="#7f1d1d"/>
  <text x="173" y="42" fill="#fecaca" font-size="9" text-anchor="middle">dangerous</text>
  <text x="340" y="42" fill="#fde047" font-size="10" text-anchor="end">awaiting</text>

  <!-- args -->
  <rect x="24" y="52" width="332" height="72" rx="4" fill="#09090b"/>
  <text x="32" y="68" fill="#a1a1aa" font-size="10" font-family="ui-monospace, monospace">{</text>
  <text x="40" y="82" fill="#e4e4e7" font-size="10" font-family="ui-monospace, monospace">"selector": "form#register",</text>
  <text x="40" y="96" fill="#e4e4e7" font-size="10" font-family="ui-monospace, monospace">"tabId": 0</text>
  <text x="32" y="110" fill="#a1a1aa" font-size="10" font-family="ui-monospace, monospace">}</text>

  <!-- warning banner -->
  <rect x="24" y="134" width="332" height="26" rx="4" fill="#7f1d1d" opacity="0.4"/>
  <text x="32" y="152" fill="#fecaca" font-size="10">⚠ 会触发服务端动作（下单、留言等）。请确认参数无误。</text>

  <!-- action buttons -->
  <g transform="translate(24, 176)">
    <rect width="60" height="26" rx="4" fill="#065f46"/>
    <text x="30" y="18" fill="#a7f3d0" font-size="11" text-anchor="middle">✓ 通过</text>

    <rect x="68" width="60" height="26" rx="4" fill="#27272a"/>
    <text x="98" y="18" fill="#a1a1aa" font-size="11" text-anchor="middle">⊘ 跳过</text>

    <rect x="136" width="60" height="26" rx="4" fill="#7f1d1d"/>
    <text x="166" y="18" fill="#fecaca" font-size="11" text-anchor="middle">✕ 终止</text>
  </g>

  <text x="24" y="240" fill="#71717a" font-size="10">危险工具必须每次人工审阅，或在 trust 模式下加入白名单</text>
</svg>
