<svg xmlns="http://www.w3.org/2000/svg" viewBox="0 0 380 300" font-family="ui-sans-serif, system-ui, sans-serif">
  <rect width="380" height="300" rx="8" fill="#09090b"/>
  <rect x="0" y="0" width="380" height="300" rx="8" fill="none" stroke="#27272a" stroke-width="1"/>

  <!-- Bubble -->
  <rect x="12" y="20" width="356" height="200" rx="6" fill="#18181b"/>

  <!-- Summary header -->
  <text x="24" y="42" fill="#a1a1aa" font-size="11">▾ 6 步</text>

  <!-- Step rows -->
  <g transform="translate(24, 58)">
    <g>
      <circle cx="6" cy="6" r="5" fill="#059669"/>
      <text x="18" y="10" fill="#e4e4e7" font-size="11">获取页面信息</text>
      <text x="330" y="10" fill="#71717a" font-size="10" text-anchor="end">2ms</text>
    </g>
    <g transform="translate(0, 22)">
      <circle cx="6" cy="6" r="5" fill="#059669"/>
      <text x="18" y="10" fill="#e4e4e7" font-size="11">抓页面快照</text>
      <text x="330" y="10" fill="#71717a" font-size="10" text-anchor="end">3ms</text>
    </g>
    <g transform="translate(0, 44)">
      <circle cx="6" cy="6" r="5" fill="#059669"/>
      <text x="18" y="10" fill="#e4e4e7" font-size="11">找匹配元素</text>
      <text x="330" y="10" fill="#71717a" font-size="10" text-anchor="end">3ms</text>
    </g>
    <g transform="translate(0, 66)">
      <circle cx="6" cy="6" r="5" fill="#059669"/>
      <text x="18" y="10" fill="#e4e4e7" font-size="11">点击元素</text>
      <text x="330" y="10" fill="#71717a" font-size="10" text-anchor="end">8ms</text>
    </g>
    <g transform="translate(0, 88)">
      <text x="0" y="10" fill="#a1a1aa" font-size="11">⟳</text>
      <text x="18" y="10" fill="#e4e4e7" font-size="11">发请求</text>
    </g>
    <g transform="translate(0, 110)">
      <text x="0" y="10" fill="#dc2626" font-size="11">✗</text>
      <text x="18" y="10" fill="#e4e4e7" font-size="11">点击元素</text>
      <text x="130" y="10" fill="#f87171" font-size="10">uid el_102 not found</text>
    </g>
  </g>

  <!-- Assistant text -->
  <text x="24" y="200" fill="#a1a1aa" font-size="11">我已经完成 5 步，最后一步失败。</text>
</svg>
