<svg xmlns="http://www.w3.org/2000/svg" viewBox="0 0 380 340" font-family="ui-sans-serif, system-ui, sans-serif">
  <rect width="380" height="340" rx="8" fill="#09090b"/>
  <rect x="0" y="0" width="380" height="340" rx="8" fill="none" stroke="#27272a" stroke-width="1"/>

  <!-- Card 1 -->
  <rect x="12" y="20" width="356" height="130" rx="6" fill="#18181b" stroke="#27272a"/>
  <text x="24" y="42" fill="#a1a1aa" font-size="10">tool:</text>
  <text x="52" y="42" fill="#e4e4e7" font-size="11" font-weight="600">takeSnapshot</text>
  <rect x="150" y="30" width="42" height="16" rx="3" fill="#065f46"/>
  <text x="171" y="42" fill="#a7f3d0" font-size="9" text-anchor="middle">safe</text>
  <text x="340" y="42" fill="#71717a" font-size="10" text-anchor="end">✓ 2ms</text>

  <!-- args JSON -->
  <rect x="24" y="52" width="332" height="52" rx="4" fill="#09090b"/>
  <text x="32" y="68" fill="#a1a1aa" font-size="10" font-family="ui-monospace, monospace">{</text>
  <text x="40" y="82" fill="#e4e4e7" font-size="10" font-family="ui-monospace, monospace">"includeAll": false,</text>
  <text x="40" y="96" fill="#e4e4e7" font-size="10" font-family="ui-monospace, monospace">"tabId": 0</text>
  <text x="32" y="110" fill="#a1a1aa" font-size="10" font-family="ui-monospace, monospace">}</text>
  <text x="32" y="132" fill="#71717a" font-size="10">▸ output</text>

  <!-- Card 2 -->
  <rect x="12" y="164" width="356" height="130" rx="6" fill="#18181b" stroke="#27272a"/>
  <text x="24" y="186" fill="#a1a1aa" font-size="10">tool:</text>
  <text x="52" y="186" fill="#e4e4e7" font-size="11" font-weight="600">clickByUid</text>
  <rect x="140" y="174" width="52" height="16" rx="3" fill="#78350f"/>
  <text x="166" y="186" fill="#fed7aa" font-size="9" text-anchor="middle">caution</text>
  <text x="340" y="186" fill="#71717a" font-size="10" text-anchor="end">✓ 8ms</text>

  <rect x="24" y="196" width="332" height="52" rx="4" fill="#09090b"/>
  <text x="32" y="212" fill="#a1a1aa" font-size="10" font-family="ui-monospace, monospace">{</text>
  <text x="40" y="226" fill="#e4e4e7" font-size="10" font-family="ui-monospace, monospace">"uid": "el_47",</text>
  <text x="40" y="240" fill="#e4e4e7" font-size="10" font-family="ui-monospace, monospace">"tabId": 0</text>
  <text x="32" y="254" fill="#a1a1aa" font-size="10" font-family="ui-monospace, monospace">}</text>
  <text x="32" y="276" fill="#71717a" font-size="10">▸ output</text>

  <!-- Assistant text -->
  <text x="24" y="322" fill="#a1a1aa" font-size="11">已点击"加入购物车"按钮。</text>
</svg>
