<svg xmlns="http://www.w3.org/2000/svg" viewBox="0 0 380 640" font-family="ui-sans-serif, system-ui, sans-serif">
  <!-- 面板背景 -->
  <rect width="380" height="640" rx="8" fill="#09090b"/>
  <rect x="0" y="0" width="380" height="640" rx="8" fill="none" stroke="#27272a" stroke-width="1"/>

  <!-- Header -->
  <rect x="0" y="0" width="380" height="44" fill="#18181b"/>
  <text x="12" y="27" fill="#e4e4e7" font-size="13" font-weight="700">AtWebPilot</text>
  <text x="86" y="27" fill="#71717a" font-size="10" font-family="ui-monospace, monospace">v0.0.43</text>
  <!-- Header icons -->
  <g fill="#71717a" transform="translate(220, 15)">
    <rect width="16" height="16" rx="3" fill="#27272a"/>
    <rect x="20" width="16" height="16" rx="3" fill="#27272a"/>
    <rect x="40" width="16" height="16" rx="3" fill="#27272a"/>
    <rect x="60" width="16" height="16" rx="3" fill="#27272a"/>
    <rect x="80" width="16" height="16" rx="3" fill="#27272a"/>
    <rect x="100" width="16" height="16" rx="3" fill="#27272a"/>
  </g>

  <!-- Tab identity bar -->
  <rect x="0" y="44" width="380" height="28" fill="#0f0f11"/>
  <circle cx="14" cy="58" r="4" fill="#10b981"/>
  <text x="26" y="62" fill="#a1a1aa" font-size="10" font-family="ui-monospace, monospace">example.com/product · Tab #142</text>

  <!-- User bubble -->
  <rect x="12" y="88" width="356" height="36" rx="6" fill="#1e3a8a" opacity="0.4"/>
  <text x="24" y="110" fill="#dbeafe" font-size="12">总结此页并抽出前 3 个要点</text>

  <!-- Assistant bubble container -->
  <rect x="12" y="140" width="356" height="200" rx="6" fill="#18181b" opacity="0.7"/>

  <!-- Compact step rows -->
  <g transform="translate(24, 158)">
    <g>
      <circle cx="6" cy="6" r="5" fill="#059669"/>
      <text x="18" y="10" fill="#e4e4e7" font-size="11">获取页面信息</text>
      <text x="310" y="10" fill="#71717a" font-size="10" text-anchor="end">2ms</text>
    </g>
    <g transform="translate(0, 22)">
      <circle cx="6" cy="6" r="5" fill="#059669"/>
      <text x="18" y="10" fill="#e4e4e7" font-size="11">抓页面快照</text>
      <text x="310" y="10" fill="#71717a" font-size="10" text-anchor="end">3ms</text>
    </g>
    <g transform="translate(0, 44)">
      <circle cx="6" cy="6" r="5" fill="#059669"/>
      <text x="18" y="10" fill="#e4e4e7" font-size="11">提取文本</text>
      <text x="310" y="10" fill="#71717a" font-size="10" text-anchor="end">4ms</text>
    </g>
    <g transform="translate(0, 66)">
      <circle cx="6" cy="6" r="5" fill="#059669"/>
      <text x="18" y="10" fill="#e4e4e7" font-size="11">找匹配元素</text>
      <text x="310" y="10" fill="#71717a" font-size="10" text-anchor="end">3ms</text>
    </g>
  </g>

  <!-- Assistant response text -->
  <text x="24" y="260" fill="#e4e4e7" font-size="11">这是一个电商产品页面，主要包含：</text>
  <text x="24" y="278" fill="#a1a1aa" font-size="11">1. 商品标题「XX 系列 · 型号 A1」</text>
  <text x="24" y="294" fill="#a1a1aa" font-size="11">2. 价格 ¥299（原价 ¥399，打折 25%）</text>
  <text x="24" y="310" fill="#a1a1aa" font-size="11">3. 用户评论 1284 条，平均 4.6 星</text>

  <!-- Input area -->
  <rect x="12" y="510" width="356" height="72" rx="6" fill="#18181b" stroke="#27272a"/>
  <text x="24" y="536" fill="#52525b" font-size="11">告诉 AI 你要做什么…</text>
  <!-- Icons + Send -->
  <g transform="translate(24, 552)">
    <rect width="42" height="20" rx="4" fill="#065f46"/>
    <text x="21" y="14" fill="#a7f3d0" font-size="10" text-anchor="middle">默认</text>
    <rect x="52" width="20" height="20" rx="3" fill="#27272a"/>
    <rect x="76" width="20" height="20" rx="3" fill="#27272a"/>
    <rect x="100" width="20" height="20" rx="3" fill="#27272a"/>
  </g>
  <rect x="336" y="552" width="24" height="20" rx="4" fill="#1d4ed8"/>
  <text x="348" y="566" fill="#ffffff" font-size="12" text-anchor="middle">↑</text>

  <!-- Footer stats -->
  <text x="12" y="616" fill="#3f3f46" font-size="9" font-family="ui-monospace, monospace">round 4/20 · in 5.2k / out 1.8k</text>
</svg>
